<svg width="80" height="20" viewBox="0 0 80 20" fill="none" xmlns="http://www.w3.org/2000/svg">
<path d="M0 2.10208H7.71171C11.5989 2.10208 13.8403 4.48456 13.8403 7.74479C13.8403 10.6288 12.0691 13.5913 7.7744 13.5913H4.42013V19.6729H0V2.10208ZM7.00637 10.2056C8.58946 10.2056 9.56126 9.26519 9.56126 7.87019C9.56126 6.36546 8.55812 5.55041 6.97502 5.55041H4.42013V10.2056H7.00637Z" fill="#0054B4"/>
<path d="M14.0598 14.6378V12.2553C14.0598 8.30542 17.1633 6.44019 20.3608 6.44019C23.3233 6.44019 26.0976 8.1957 26.0976 11.7067V14.1989H18.1978V14.7475C18.1978 16.2052 19.6085 16.8635 20.9251 16.8635C22.0537 16.8635 23.6681 16.2522 24.2951 15.688L25.8468 17.9764C24.5145 19.3244 22.5239 19.9984 20.4079 19.9984C17.1633 19.9984 14.0598 18.4153 14.0598 14.6378ZM22.2574 11.8321V11.4089C22.2574 10.0609 21.3483 9.43396 20.2668 9.43396C19.1853 9.43396 18.1978 10.0766 18.1978 11.4716V11.8164H22.2574V11.8321Z" fill="#0054B4"/>
<path d="M28.3232 6.70796H32.3202V8.85533H32.3515C33.0412 7.60139 34.687 6.48853 36.3014 6.48853C36.6776 6.48853 37.1948 6.51987 37.5867 6.61392V10.1093C36.9754 10.0152 36.2387 9.9682 35.8625 9.9682C34.1697 9.9682 32.4142 10.6892 32.4142 12.9306V19.6705H28.3546V6.70796H28.3232Z" fill="#0054B4"/>
<path d="M39.1694 9.9935V7.03108V5.49501C39.1694 2.78337 41.019 1.6705 43.2604 1.6705C43.9187 1.6705 44.7181 1.70185 45.4548 1.88994V4.69562C45.0629 4.6486 44.5927 4.61725 44.2009 4.61725C43.6366 4.61725 43.2134 4.88371 43.2134 5.52636V6.67057H45.5018V9.38221H43.2134V19.6645H39.1694V9.9935Z" fill="#0054B4"/>
<path d="M53.9973 14.7632V11.9575C53.9973 8.21137 57.1322 6.44019 60.1259 6.44019C63.2608 6.44019 66.3799 8.133 66.3799 11.8791V14.5594C66.3799 18.3369 63.1197 19.9514 60.22 19.9514C57.1165 19.967 53.9973 18.5093 53.9973 14.7632ZM62.2733 14.8102V11.6127C62.2733 10.3587 61.3799 9.54368 60.173 9.54368C59.0131 9.54368 58.104 10.2804 58.104 11.691V14.8729C58.104 16.1268 58.919 16.8949 60.22 16.8949C61.3799 16.8949 62.2733 16.1895 62.2733 14.8102Z" fill="#0054B4"/>
<path d="M67.1177 17.978L69.2337 15.5328C70.1428 16.4262 71.5535 17.0845 72.9485 17.0845C73.8889 17.0845 74.9391 16.8337 74.9391 16.003C74.9391 15.235 74.3435 15.0469 73.309 14.8431C73.2306 14.8118 73.1679 14.8431 71.0206 14.3259C68.9516 13.84 67.6663 12.8055 67.6663 10.8462C67.6663 8.2913 69.9077 6.4104 73.1052 6.4104C75.5974 6.4104 77.0238 6.8963 78.4815 8.13456L76.1617 10.376C75.331 9.60794 74.1867 9.24743 73.1836 9.24743C72.1021 9.24743 71.4594 9.56091 71.4594 10.2819C71.4594 10.9716 72.3999 11.097 73.2776 11.2694L75.519 11.7396C77.8388 12.2255 79.0928 13.5892 79.0928 15.4387C79.0928 18.5893 75.8639 19.9686 73.1366 19.9686C70.8011 19.9686 68.8418 19.5767 67.1177 17.978Z" fill="#0054B4"/>
<path d="M47.7754 9.39031V19.6726H51.8507V7.03918L48.3553 9.06116L47.7754 9.39031Z" fill="#0054B4"/>
<path d="M47.7754 0V4.68659L51.8507 7.03772V2.35113L47.7754 0Z" fill="#33B977"/>
</svg>
